<?xml version="1.0" encoding="utf-8"?>
<!-- Generator: Adobe Illustrator 23.0.5, SVG Export Plug-In . SVG Version: 6.00 Build 0)  -->
<svg version="1.1" id="Capa_1" xmlns="http://www.w3.org/2000/svg" xmlns:xlink="http://www.w3.org/1999/xlink" x="0px" y="0px"
	 viewBox="0 0 500 113.4" style="enable-background:new 0 0 500 113.4;" xml:space="preserve">
<style type="text/css">
	.st0{fill:#00C9FF;}
	.st1{fill:#FFFFFF;}
</style>
<rect width="500" height="113.4"/>
<g id="X">
	<path id="x-small_1_" class="st0" d="M86.9,46.9c0,0,27.8-26.9,27.8-26.9c0.7-0.7,0.8-3.1-0.4-4.8c-0.5-0.7-1.1-1.1-1.5-1.3
		c-0.6-0.3-1.3-0.3-1.7-0.3l-13.4,0c-1.6,0-2.4,0.4-3.1,1.1l-9.2,9c0,0-7.3,6.9-10.9,10.6c-1,1.1-1.5,2.8-1,4.3
		c0.9,3.2,3.9,6.5,7.5,8.1C83.4,47.8,86.1,47.5,86.9,46.9z"/>
	<path id="x-main" class="st1" d="M42.9,48.7c0.2,0.2,3.6,3.7,3.1,9c-0.4,4-3.1,6.6-3.1,6.6S15.5,90.9,13.5,93c-1,1-0.6,3.8,0,4.6
		c0.5,0.7,1.3,1.5,1.8,1.7c0.6,0.3,1.3,0.3,1.7,0.3l13.9,0c0.9,0,1.8-0.4,2.5-1.1c8-7.7,16-15.5,24-23.2c0.6-0.7,2.8-2.9,6.2-3.1
		c3.8-0.2,6.3,2.4,6.9,3l24,23.2c0.7,0.7,1.6,1.1,2.5,1.1l13.9,0c0.4,0,1.1,0,1.7-0.3c0.5-0.3,1-0.7,1.5-1.3c1.3-1.7,0.8-4.4,0-5.2
		c0,0-71.6-69.1-71.6-69.1l-9.2-9c-0.7-0.7-1.6-1.1-2.5-1.1l-13.9,0c-0.4,0-1.1,0-1.7,0.3c-0.5,0.3-1,0.7-1.5,1.3
		c-1.3,1.7-1.1,4.2-0.3,4.9C13.4,20.1,42.9,48.7,42.9,48.7"/>
</g>
<rect id="I" x="139.4" y="13.6" class="st1" width="16.1" height="86.2"/>
<path id="A" class="st1" d="M192.9,99.6c9.4-23.4,14.5-38.2,23.9-61.6c1.6-3.7,4.5-7.8,9.2-7.8c4.5,0,6,3.6,7.7,7.8l24.3,61.5
	l17.9,0c0,0-25.8-65.3-25.9-65.6c-5.9-14-12.5-20.2-23.8-20.3c-11.8-0.2-18.8,6.3-24.9,20.4l-26.2,65.7L192.9,99.6z"/>
<path id="A_1_" class="st1" d="M404.9,99.7c9.3-23.5,14.4-38.2,23.7-61.7c1.6-3.7,4.5-7.8,9.2-7.8c4.5,0,6,3.6,7.7,7.8L470,99.7
	l17.9,0c0,0-26-65.5-26.2-65.8c-5.9-14.1-12.5-20.2-23.9-20.4c-11.8-0.2-18.8,6.3-24.9,20.4l-26,65.8L404.9,99.7z"/>
<path id="R" class="st1" d="M293.1,99.5h16V75.4c0-0.7,0.2-3.5,2-5.8c2-2.6,4.4-2.7,4.9-2.7c5.9,0,11.8,0,17.8,0l23,32.6h18
	l-22.6-33.7c0.9,0.1,11.3,1.2,18-8.8c4.9-7.3,4.6-15.8,4.5-17.8c-0.1-1.9-0.9-11.7-7.8-19c-7.1-7.4-15.2-6.6-16.6-6.5
	c-17.9,0-36.8,0-54.8,0c-0.6,0-1.1,0.4-1.3,1c-0.4,1.1-0.9,2.8-1.1,5.2c-0.3,3.6,0.5,6.2,1.2,7.6c0.3,0.6,0.7,0.9,1.3,0.9
	c17.4,0,35.9,0,53.3,0c6.1,0.3,10.4,6.9,9.6,13.2c-0.6,5.2-4.7,9.6-9.6,9.6c-13.3,0-26.5,0-39.8,0c-1.2,0.1-7.1,0.6-11.7,6.8
	c-3.7,5-4.2,10.8-4.3,12.6C293.1,80.2,293.1,89.9,293.1,99.5"/>
</svg>
