<?xml version="1.0" encoding="utf-8"?>
<!-- Generator: Adobe Illustrator 23.0.5, SVG Export Plug-In . SVG Version: 6.00 Build 0)  -->
<svg version="1.1" id="Capa_1" xmlns="http://www.w3.org/2000/svg" xmlns:xlink="http://www.w3.org/1999/xlink" x="0px" y="0px"
	 viewBox="0 0 300 300" style="enable-background:new 0 0 300 300;" xml:space="preserve">
<style type="text/css">
	.st0{fill:#FFFFFF;}
	.st1{fill:#00C9FF;}
	.st2{display:none;}
	.st3{display:inline;fill:none;stroke:#AF2334;stroke-miterlimit:10;}
</style>
<rect class="st0" width="300" height="300"/>
<g id="X">
	<path id="x-small_1_" class="st1" d="M206.9,125.8l69.2-66.9c1.9-1.8,2.1-7.8-1.1-12c-1.3-1.7-2.7-2.7-3.8-3.3
		c-1.4-0.8-3.3-0.7-4.3-0.7h-33.3c-3.9,0-5.9,1-7.7,2.7L203,67.8c0,0-18.2,17.1-27.2,26.3c-2.6,2.6-3.7,6.9-2.6,10.8
		c2.3,7.9,9.7,16.3,18.5,20.2C198.4,128.1,205,127.2,206.9,125.8z"/>
	<path id="x-main" d="M97.6,130.2c0.5,0.5,9.1,9.1,7.7,22.4c-1,9.8-7.8,16.4-7.8,16.4s-68.1,66.4-73.2,71.5
		c-2.5,2.5-1.5,9.4-0.1,11.5c1.2,1.8,3.3,3.6,4.4,4.3c1.4,0.8,3.3,0.7,4.3,0.7h34.7c2.3,0,4.5-0.9,6.3-2.7
		c19.9-19.2,39.8-38.5,59.7-57.7c1.6-1.7,7.1-7.2,15.4-7.6c9.4-0.4,15.7,6,17.1,7.6l59.8,57.8c1.8,1.7,4,2.7,6.3,2.7h34.7
		c1,0,2.8,0.1,4.3-0.7c1.1-0.6,2.5-1.6,3.8-3.3c3.1-4.2,1.9-11,0-13L96.8,68L73.9,45.5c-1.8-1.7-4-2.7-6.3-2.7H32.9
		c-1,0-2.8-0.1-4.3,0.7c-1.1,0.6-2.5,1.6-3.8,3.3C21.7,51,22.2,57.2,24,59C24.1,59.1,97.6,130.2,97.6,130.2"/>
</g>
<g class="st2">
	<line class="st3" x1="234.6" y1="37" x2="27" y2="237.3"/>
</g>
<g class="st2">
	<line class="st3" x1="274.2" y1="60.4" x2="66.6" y2="260.8"/>
</g>
</svg>
