<?xml version="1.0" encoding="utf-8"?>
<!-- Generator: Adobe Illustrator 23.0.5, SVG Export Plug-In . SVG Version: 6.00 Build 0)  -->
<svg version="1.1" id="Capa_1" xmlns="http://www.w3.org/2000/svg" xmlns:xlink="http://www.w3.org/1999/xlink" x="0px" y="0px"
	 viewBox="0 0 270.3 257" style="enable-background:new 0 0 270.3 257;" xml:space="preserve">
<style type="text/css">
	.st0{display:none;}
	.st1{display:inline;fill:#FFFFFF;}
	.st2{display:inline;}
	.st3{fill:#00C9FF;}
	.st4{display:inline;fill:none;stroke:#AF2334;stroke-miterlimit:10;}
</style>
<g class="st0">
	<rect x="-14.3" y="-21" class="st1" width="299" height="299"/>
	<path class="st2" d="M284.2-20.5v298h-298v-298H284.2 M285.2-21.5h-300v300h300V-21.5L285.2-21.5z"/>
</g>
<g id="X">
	<path id="x-small_1_" class="st3" d="M192,104.3c0,0,69.2-66.9,69.2-66.9c1.9-1.8,2.1-7.8-1.1-12c-1.3-1.7-2.7-2.7-3.8-3.3
		c-1.4-0.8-3.3-0.7-4.3-0.7l-33.3,0c-3.9,0-5.9,1-7.7,2.7l-22.9,22.3c0,0-18.2,17.1-27.2,26.3c-2.6,2.6-3.7,6.9-2.6,10.8
		c2.3,7.9,9.7,16.3,18.5,20.2C183.6,106.6,190.1,105.7,192,104.3z"/>
	<path id="x-main" d="M82.7,108.7c0.5,0.5,9.1,9.1,7.7,22.4c-1,9.8-7.8,16.4-7.8,16.4S14.5,213.9,9.4,219c-2.5,2.5-1.5,9.4-0.1,11.5
		c1.2,1.8,3.3,3.6,4.4,4.3c1.4,0.8,3.3,0.7,4.3,0.7l34.7,0c2.3,0,4.5-0.9,6.3-2.7c19.9-19.2,39.8-38.5,59.7-57.7
		c1.6-1.7,7.1-7.2,15.4-7.6c9.4-0.4,15.7,6,17.1,7.6l59.8,57.8c1.8,1.7,4,2.7,6.3,2.7l34.7,0c1,0,2.8,0.1,4.3-0.7
		c1.1-0.6,2.5-1.6,3.8-3.3c3.1-4.2,1.9-11,0-13c0,0-178.2-172.1-178.2-172.1L59.1,24c-1.8-1.7-4-2.7-6.3-2.7l-34.7,0
		c-1,0-2.8-0.1-4.3,0.7c-1.1,0.6-2.5,1.6-3.8,3.3c-3.1,4.2-2.6,10.4-0.8,12.2C9.2,37.6,82.7,108.7,82.7,108.7"/>
</g>
<g class="st0">
	<line class="st4" x1="219.7" y1="15.5" x2="12.1" y2="215.8"/>
</g>
<g class="st0">
	<line class="st4" x1="259.4" y1="39" x2="51.8" y2="239.3"/>
</g>
</svg>
